<svg width="98" height="97" viewBox="0 0 98 97" fill="none" xmlns="http://www.w3.org/2000/svg">
<path d="M92.1516 54.9677C89.473 54.9677 87.3015 57.1392 87.3015 59.8178V64.6679H34.9998C35.3686 63.9124 35.5626 63.0836 35.5673 62.2429C35.5673 59.1178 33.0339 56.5844 29.9089 56.5844H18.592C15.4669 56.5844 12.9336 59.1178 12.9336 62.2429C12.9383 63.0836 13.1322 63.9124 13.501 64.6679H9.70018V46.8843C9.70018 44.2056 7.52872 42.0342 4.85009 42.0342C2.17147 42.0342 8.80824e-06 44.2056 8.80824e-06 46.8843V92.1517C-0.004462 94.5112 1.69348 96.5299 4.01882 96.9297C6.34417 97.3295 8.61885 95.9939 9.40271 93.7684H87.599C88.3829 95.9939 90.6575 97.3295 92.9829 96.9297C95.3082 96.5299 97.0062 94.5112 97.0017 92.1517V59.8178C97.0017 57.1392 94.8302 54.9677 92.1516 54.9677ZM87.3015 82.4515H30.7172C29.8243 82.4515 29.1005 81.7277 29.1005 80.8349V67.9013H87.3015V82.4515ZM16.167 62.2429C16.167 60.9036 17.2527 59.8178 18.592 59.8178H29.9089C31.2482 59.8178 32.3339 60.9036 32.3339 62.2429C32.3339 63.5822 31.2482 64.6679 29.9089 64.6679H18.592C17.2527 64.6679 16.167 63.5822 16.167 62.2429ZM4.85009 93.7684C3.95722 93.7684 3.2334 93.0446 3.2334 92.1517V46.8843C3.2334 45.9914 3.95722 45.2676 4.85009 45.2676C5.74297 45.2676 6.46679 45.9914 6.46679 46.8843V92.1517C6.46679 93.0446 5.74297 93.7684 4.85009 93.7684ZM9.70018 67.9013H25.8671V80.8349C25.8671 83.5135 28.0386 85.6849 30.7172 85.6849H87.3015V90.535H9.70018V67.9013ZM93.7683 92.1517C93.7683 93.0446 93.0445 93.7684 92.1516 93.7684C91.2587 93.7684 90.5349 93.0446 90.5349 92.1517V59.8178C90.5349 58.9249 91.2587 58.2011 92.1516 58.2011C93.0445 58.2011 93.7683 58.9249 93.7683 59.8178V92.1517Z" fill="#7670F5"/>
<path d="M48.5009 51.7342C62.7869 51.7342 74.368 40.1531 74.368 25.8671C74.368 11.5811 62.7869 0 48.5009 0C34.2149 0 22.6338 11.5811 22.6338 25.8671C22.6507 40.1461 34.2219 51.7173 48.5009 51.7342ZM48.5009 3.23339C61.0012 3.23339 71.1346 13.3669 71.1346 25.8671C71.1346 38.3674 61.0012 48.5008 48.5009 48.5008C36.0006 48.5008 25.8672 38.3674 25.8672 25.8671C25.8805 13.3724 36.0062 3.24676 48.5009 3.23339Z" fill="#7670F5"/>
<path d="M37.1841 32.3339H42.0342V37.184C42.0342 38.9698 43.4818 40.4174 45.2675 40.4174H51.7343C53.5201 40.4174 54.9677 38.9698 54.9677 37.184V32.3339H59.8178C61.6036 32.3339 63.0512 30.8863 63.0512 29.1005V22.6338C63.0512 20.848 61.6036 19.4004 59.8178 19.4004H54.9677V14.5503C54.9677 12.7645 53.5201 11.3169 51.7343 11.3169H45.2675C43.4818 11.3169 42.0342 12.7645 42.0342 14.5503V19.4004H37.1841C35.3983 19.4004 33.9507 20.848 33.9507 22.6338V29.1005C33.9507 30.8863 35.3983 32.3339 37.1841 32.3339ZM37.1841 22.6338H42.0342C43.8199 22.6338 45.2675 21.1861 45.2675 19.4004V14.5503H51.7343V19.4004C51.7343 21.1861 53.182 22.6338 54.9677 22.6338H59.8178V29.1005H54.9677C53.182 29.1005 51.7343 30.5482 51.7343 32.3339V37.184H45.2675V32.3339C45.2675 30.5482 43.8199 29.1005 42.0342 29.1005H37.1841V22.6338Z" fill="#7670F5"/>
<path d="M33.9507 74.3679H69.518C70.4108 74.3679 71.1347 73.6441 71.1347 72.7512C71.1347 71.8583 70.4108 71.1345 69.518 71.1345H33.9507C33.0578 71.1345 32.334 71.8583 32.334 72.7512C32.334 73.6441 33.0578 74.3679 33.9507 74.3679Z" fill="#7670F5"/>
<path d="M75.9849 74.3679C76.8777 74.3679 77.6016 73.6441 77.6016 72.7512C77.6016 71.8583 76.8777 71.1345 75.9849 71.1345C75.092 71.1345 74.3682 71.8583 74.3682 72.7512C74.3682 73.6441 75.092 74.3679 75.9849 74.3679Z" fill="#7670F5"/>
</svg>
