<svg width="105" height="93" viewBox="0 0 105 93" fill="none" xmlns="http://www.w3.org/2000/svg">
<path d="M91.1685 33.1992H42.3599C41.5104 33.1992 40.8218 33.8879 40.8218 34.7373C40.8218 35.5867 41.5104 36.2754 42.3599 36.2754H91.1685C92.0179 36.2754 92.7065 35.5867 92.7065 34.7373C92.7065 33.8879 92.0179 33.1992 91.1685 33.1992Z" fill="#7670F5"/>
<path d="M91.1685 44.957H42.3599C41.5104 44.957 40.8218 45.6457 40.8218 46.4951C40.8218 47.3446 41.5104 48.0332 42.3599 48.0332H91.1685C92.0179 48.0332 92.7065 47.3446 92.7065 46.4951C92.7065 45.6457 92.0179 44.957 91.1685 44.957Z" fill="#7670F5"/>
<path d="M91.1685 56.7146H42.3599C41.5104 56.7146 40.8218 57.4033 40.8218 58.2527C40.8218 59.1021 41.5104 59.7908 42.3599 59.7908H91.1685C92.0179 59.7908 92.7065 59.1021 92.7065 58.2527C92.7065 57.4033 92.0179 56.7146 91.1685 56.7146Z" fill="#7670F5"/>
<path d="M96.054 19.7476H37.4742C32.5415 19.7476 28.5283 23.7605 28.5283 28.6935V65.529C28.5283 70.4617 32.5413 74.4749 37.4742 74.4749H78.5331C78.9722 74.4749 79.3801 74.6724 79.6525 75.0171L92.9118 91.8034C93.4343 92.465 94.1968 92.8255 94.9952 92.8255C95.2919 92.8255 95.5938 92.7757 95.8899 92.6727C96.9824 92.2933 97.6883 91.3009 97.6883 90.1445V74.3221C101.836 73.5473 105 69.8803 105 65.529V28.6933C105 23.7605 100.987 19.7476 96.054 19.7476ZM101.924 65.529C101.924 68.7235 99.3248 71.3557 96.1303 71.3963C95.2886 71.4071 94.6119 72.0925 94.6119 72.9344V88.993L82.0664 73.1103C81.2074 72.0224 79.9195 71.3985 78.5331 71.3985H37.4742C34.2377 71.3985 31.6045 68.7653 31.6045 65.5288V28.6933C31.6045 25.4567 34.2375 22.8235 37.4742 22.8235H96.054C99.2905 22.8235 101.924 25.4567 101.924 28.6933V65.529Z" fill="#7670F5"/>
<path d="M22.6599 45.1796C21.6079 45.3289 20.6657 45.8706 20.007 46.7044L9.44118 60.0808V46.6747C9.44118 45.8328 8.76442 45.1474 7.92278 45.1366C5.25041 45.1025 3.07617 42.9006 3.07617 40.228V8.16182C3.07617 5.45417 5.27912 3.25122 7.98677 3.25122H58.9821C61.6898 3.25122 63.8927 5.45417 63.8927 8.16182V14.0951C63.8927 14.9446 64.5814 15.6332 65.4308 15.6332C66.2802 15.6332 66.9689 14.9446 66.9689 14.0951V8.16182C66.9689 3.75797 63.386 0.175049 58.9821 0.175049H7.98677C3.58292 0.175049 0 3.75797 0 8.16182V40.228C0 44.0562 2.7421 47.2905 6.36521 48.0464V61.6567C6.36521 62.7493 7.03213 63.6871 8.06449 64.0456C8.34442 64.1428 8.62948 64.19 8.91003 64.19C9.6641 64.19 10.385 63.8491 10.8786 63.2243L22.4212 48.6112C22.5877 48.4002 22.8262 48.2632 23.0924 48.2253C23.9334 48.1059 24.5185 47.3272 24.399 46.4862C24.2796 45.6452 23.5022 45.0597 22.6599 45.1796Z" fill="#7670F5"/>
</svg>
