<svg width="1440" height="2121" viewBox="0 0 1440 2121" fill="none" xmlns="http://www.w3.org/2000/svg">
<path d="M1599.83 -92.1063C1599.83 -92.1063 1517.92 439.679 1256.64 618.112C995.368 796.546 609.507 577.535 133.489 903.484C-342.529 1229.43 -156.13 1818 -480.45 2098.81" stroke="#615AE1" stroke-opacity="0.24" stroke-width="2"/>
<path d="M1599.83 -92.1068C1599.83 -92.1068 1497.46 412.046 1236.18 590.479C974.909 768.913 656.69 564.166 180.672 890.116C-295.346 1216.07 -176.59 1790.37 -500.909 2071.17" stroke="#615AE1" stroke-opacity="0.24" stroke-width="2"/>
<path d="M1599.83 -92.1067C1599.83 -92.1067 1477 384.414 1215.72 562.847C954.449 741.281 703.872 550.798 227.855 876.747C-248.163 1202.7 -197.049 1762.74 -521.369 2043.54" stroke="#615AE1" stroke-opacity="0.24" stroke-width="2"/>
<path d="M1599.83 -92.1067C1599.83 -92.1067 1456.54 356.782 1195.26 535.215C933.988 713.649 751.054 537.43 275.036 863.379C-200.981 1189.33 -217.51 1735.11 -541.83 2015.91" stroke="#615AE1" stroke-opacity="0.24" stroke-width="2"/>
<path d="M1599.83 -92.1066C1599.83 -92.1066 1436.08 329.15 1174.8 507.583C913.528 686.016 798.237 524.061 322.219 850.011C-153.799 1175.96 -237.97 1707.47 -562.29 1988.28" stroke="#615AE1" stroke-opacity="0.24" stroke-width="2"/>
<path d="M1599.83 -92.1057C1599.83 -92.1057 1415.18 301.839 1153.55 480.537C891.92 659.235 844.327 511.503 367.657 837.935C-109.013 1164.37 -280.905 1708.49 -605.708 1989.65" stroke="#615AE1" stroke-opacity="0.24" stroke-width="2"/>
</svg>
