<svg width="286" height="579" viewBox="0 0 286 579" fill="none" xmlns="http://www.w3.org/2000/svg">
<path d="M281.53 91.5559H280.992V34.3463C280.992 29.8356 280.107 25.3692 278.386 21.2019C276.666 17.0346 274.144 13.2482 270.964 10.0588C267.785 6.86946 264.011 4.33958 259.857 2.61368C255.703 0.887777 251.252 -0.000354059 246.756 1.05882e-07H39.2444C30.1654 0.000715301 21.4586 3.61965 15.039 10.0607C8.61948 16.5018 5.01306 25.2375 5.01306 34.3463V91.5559H4.47547C3.8879 91.5548 3.30589 91.6701 2.76277 91.895C2.21966 92.1199 1.7261 92.4501 1.31037 92.8667C0.894643 93.2833 0.564912 93.7781 0.340058 94.3227C0.115204 94.8674 -0.000353678 95.4511 8.13126e-07 96.0406V135.613C-0.000352555 136.202 0.115031 136.786 0.339549 137.33C0.564067 137.874 0.893318 138.369 1.30847 138.785C1.72363 139.202 2.21655 139.532 2.75904 139.757C3.30154 139.983 3.88298 140.098 4.4701 140.098H5.00769V149.537H4.4701C3.88298 149.536 3.30154 149.652 2.75904 149.877C2.21655 150.103 1.72363 150.433 1.30847 150.85C0.893318 151.266 0.564067 151.761 0.339549 152.305C0.115031 152.849 -0.000352555 153.433 8.13126e-07 154.022V193.594C-0.000352555 194.183 0.115031 194.767 0.339549 195.311C0.564067 195.855 0.893318 196.35 1.30847 196.766C1.72363 197.183 2.21655 197.513 2.75904 197.738C3.30154 197.964 3.88298 198.079 4.4701 198.079H5.00769V544.654C5.00769 549.164 5.89326 553.631 7.61385 557.798C9.33444 561.965 11.8563 565.752 15.0355 568.941C18.2147 572.131 21.989 574.66 26.1428 576.386C30.2965 578.112 34.7485 579 39.2444 579H246.756C255.835 579 264.543 575.381 270.963 568.94C277.383 562.499 280.99 553.763 280.99 544.654V164.369H281.527C282.115 164.37 282.696 164.254 283.239 164.029C283.782 163.804 284.275 163.474 284.691 163.057C285.106 162.641 285.435 162.146 285.66 161.602C285.885 161.057 286 160.474 286 159.884V96.0406C286 95.4516 285.885 94.8683 285.66 94.324C285.436 93.7797 285.107 93.2852 284.691 92.8687C284.276 92.4521 283.783 92.1218 283.241 91.8965C282.698 91.6713 282.117 91.5555 281.53 91.5559Z" fill="#615AE1"/>
<path d="M243.221 8.49487H42.779C27.423 8.49487 14.9746 20.9841 14.9746 36.3904V542.609C14.9746 558.016 27.423 570.505 42.779 570.505H243.221C258.577 570.505 271.025 558.016 271.025 542.609V36.3904C271.025 20.9841 258.577 8.49487 243.221 8.49487Z" fill="white"/>
<path d="M59.4929 44.9851H43.0963C42.9181 44.9851 42.7472 44.9141 42.6211 44.7876C42.4951 44.6612 42.4243 44.4897 42.4243 44.3109C42.4243 44.1321 42.4951 43.9606 42.6211 43.8342C42.7472 43.7077 42.9181 43.6367 43.0963 43.6367H59.4929C59.6712 43.6367 59.8421 43.7077 59.9681 43.8342C60.0941 43.9606 60.1649 44.1321 60.1649 44.3109C60.1649 44.4897 60.0941 44.6612 59.9681 44.7876C59.8421 44.9141 59.6712 44.9851 59.4929 44.9851Z" fill="#203E92"/>
<path d="M59.4929 51.0529H43.0963C42.9181 51.0529 42.7472 50.9818 42.6211 50.8554C42.4951 50.729 42.4243 50.5575 42.4243 50.3787C42.4243 50.1999 42.4951 50.0284 42.6211 49.9019C42.7472 49.7755 42.9181 49.7045 43.0963 49.7045H59.4929C59.6712 49.7045 59.8421 49.7755 59.9681 49.9019C60.0941 50.0284 60.1649 50.1999 60.1649 50.3787C60.1649 50.5575 60.0941 50.729 59.9681 50.8554C59.8421 50.9818 59.6712 51.0529 59.4929 51.0529Z" fill="#203E92"/>
<path d="M59.4929 57.1206H43.0963C42.9181 57.1206 42.7472 57.0496 42.6211 56.9232C42.4951 56.7967 42.4243 56.6252 42.4243 56.4464C42.4243 56.2676 42.4951 56.0961 42.6211 55.9697C42.7472 55.8433 42.9181 55.7722 43.0963 55.7722H59.4929C59.6712 55.7722 59.8421 55.8433 59.9681 55.9697C60.0941 56.0961 60.1649 56.2676 60.1649 56.4464C60.1649 56.6252 60.0941 56.7967 59.9681 56.9232C59.8421 57.0496 59.6712 57.1206 59.4929 57.1206Z" fill="#203E92"/>
<path d="M64.4554 387.18C44.8601 376.393 41.7072 305.435 74.2235 280.727C102.372 259.336 105.796 194.263 156.892 215.309C223.874 242.899 249.439 370.692 202.588 387.094C135.899 387.094 64.4554 387.18 64.4554 387.18Z" fill="#7DC0F8"/>
<path d="M182.524 367.855C182.524 367.855 200.593 357.669 203.525 352.659C206.458 347.648 201.722 347.653 201.722 347.653C201.722 347.653 209.59 339.024 208.216 335.672C206.842 332.32 202.655 335.844 202.655 335.844C202.655 335.844 207.375 323.42 204.775 322.36C199.937 320.392 194.351 335.499 194.351 335.499C194.351 335.499 195.171 327.983 191.932 328.355C187.056 328.913 187.994 341.57 187.994 341.57C187.994 341.57 186.763 339.191 183.909 340.941C178.791 344.075 182.524 367.855 182.524 367.855Z" fill="#D6D6ED"/>
<path d="M183.178 341.168C186.032 339.417 186.242 340.898 186.242 340.898C186.242 340.898 184.783 329.302 191.941 328.353C195.166 327.929 194.655 333.476 194.655 333.476C194.655 333.476 199.937 320.381 204.776 322.35L182.409 367.785C182.054 364.738 178.399 344.099 183.178 341.168Z" fill="#8282A8"/>
<path d="M183.686 367.785C183.686 367.785 206.082 367.761 210.702 363.866C215.323 359.972 209.657 359.67 209.657 359.67C209.657 359.67 220.358 353.969 220.202 350.167C220.046 346.364 216.417 347.133 216.417 347.133C216.417 347.133 223.817 340.483 222.296 337.26C219.962 332.309 209.393 341.702 209.393 341.702C209.393 341.702 210.2 337.926 206.92 337.147C201.972 335.96 196.951 350.078 196.951 350.078C196.951 350.078 199.319 343.719 195.919 344.415C189.809 345.693 183.686 367.785 183.686 367.785Z" fill="#8282A8"/>
<path d="M181.275 370.938C181.275 370.938 163.082 349.943 161.612 342.352C160.142 334.76 165.518 335.378 165.518 335.378C165.518 335.378 160.021 322.587 163.217 318.989C166.413 315.392 170.109 321.667 170.109 321.667C170.109 321.667 169.668 304.011 173.388 303.839C180.318 303.518 181.815 322.743 181.815 322.743C181.815 322.743 182.946 315.141 186.831 317.04C192.693 319.901 185.949 335.337 185.949 335.337C185.949 335.337 189.118 329.674 191.924 333.12C196.964 339.339 181.275 370.938 181.275 370.938Z" fill="#8282A8"/>
<path d="M192.798 332.403C189.368 329.566 187.497 331.635 187.497 331.635C187.497 331.635 192.693 319.914 186.831 317.053C182.947 315.165 181.815 322.757 181.815 322.757C181.815 322.757 180.318 303.531 173.388 303.852L181.406 370.697C184.492 371.296 196.884 335.782 192.798 332.403Z" fill="#D6D6ED"/>
<path d="M179.205 374.565C179.205 374.565 160.585 360.73 158.217 358.503C155.849 356.275 160.424 356.075 160.424 356.075C160.424 356.075 154.476 351.982 154.637 349.911C154.798 347.84 157.575 349.042 157.575 349.042C157.575 349.042 153.046 343.077 154.231 342.052C156.438 340.14 161.704 346.367 161.704 346.367C161.704 346.367 160.188 343.455 161.943 343.099C164.585 342.559 167.534 351.558 167.534 351.558C167.534 351.558 169.09 344.989 170.875 345.45C174.098 346.289 179.205 374.565 179.205 374.565Z" fill="#50BFA5"/>
<path d="M172.431 386.751H198.886C200.618 384.992 201.983 382.905 202.901 380.61C203.82 378.316 204.273 375.861 204.235 373.389C204.234 370.923 203.712 368.486 202.706 366.237L168.595 366.666C167.21 370.024 166.835 373.715 167.516 377.285C168.198 380.854 169.907 384.145 172.431 386.751Z" fill="#615AE1"/>
<path d="M74.6106 364.654C74.6106 364.654 91.0556 351.998 93.2517 346.621C95.4477 341.243 90.7545 341.923 90.7545 341.923C90.7545 341.923 94.7865 336.109 92.9667 332.983C91.147 329.857 90.01 330.1 90.01 330.1C90.01 330.1 92.9237 317.129 90.2008 316.454C85.1313 315.195 81.7391 330.944 81.7391 330.944C81.7391 330.944 81.4918 323.393 78.3442 324.202C73.5972 325.451 76.3148 337.84 76.3148 337.84C76.3148 337.84 74.7611 335.658 72.1807 337.797C67.552 341.648 74.6106 364.654 74.6106 364.654Z" fill="#B1B1DE"/>
<path d="M71.4791 338.142C74.0595 336.006 74.4789 337.446 74.4789 337.446C74.4789 337.446 71.3904 326.16 78.3442 324.216C81.4783 323.337 81.7552 328.908 81.7552 328.908C81.7552 328.908 85.1313 315.195 90.2008 316.454L74.4869 364.616C73.702 361.636 67.1568 341.726 71.4791 338.142Z" fill="#8282A8"/>
<path d="M75.043 367.785C75.043 367.785 97.4365 367.761 102.06 363.867C106.683 359.972 101.014 359.67 101.014 359.67C101.014 359.67 111.715 353.969 111.559 350.167C111.403 346.364 107.774 347.146 107.774 347.146C107.774 347.146 115.174 340.496 113.653 337.274C111.32 332.322 100.751 341.715 100.751 341.715C100.751 341.715 101.557 337.94 98.2778 337.16C93.3292 335.974 88.3081 350.091 88.3081 350.091C88.3081 350.091 90.6762 343.732 87.2759 344.428C81.1662 345.693 75.043 367.785 75.043 367.785Z" fill="#3C8F7C"/>
<path d="M72.6293 370.938C72.6293 370.938 54.4398 349.943 52.9695 342.352C51.4992 334.76 56.8752 335.378 56.8752 335.378C56.8752 335.378 51.3783 322.587 54.5742 318.989C57.7702 315.392 61.4662 321.667 61.4662 321.667C61.4662 321.667 61.0254 304.011 64.7455 303.839C71.6751 303.518 73.1723 322.743 73.1723 322.743C73.1723 322.743 74.3039 315.141 78.1881 317.04C84.0505 319.901 77.3064 335.337 77.3064 335.337C77.3064 335.337 80.4755 329.674 83.2845 333.12C88.3217 339.339 72.6293 370.938 72.6293 370.938Z" fill="#8282A8"/>
<path d="M84.1554 332.403C80.7229 329.566 78.8548 331.635 78.8548 331.635C78.8548 331.635 84.0506 319.914 78.1881 317.053C74.304 315.165 73.1724 322.757 73.1724 322.757C73.1724 322.757 71.6752 303.531 64.7456 303.852L72.7611 370.697C75.8496 371.296 88.2412 335.782 84.1554 332.403Z" fill="#D6D6ED"/>
<path d="M70.5705 374.565C70.5705 374.565 51.8354 355.957 49.4512 352.974C47.0669 349.992 51.6418 349.765 51.6418 349.765C51.6418 349.765 45.6584 344.255 45.8036 341.497C45.9487 338.738 48.7361 340.361 48.7361 340.361C48.7361 340.361 44.1666 332.368 45.3332 331.009C47.5239 328.477 52.8434 336.829 52.8434 336.829C52.8434 336.829 51.3032 332.934 53.0557 332.473C55.6953 331.777 58.7166 343.8 58.7166 343.8C58.7166 343.8 60.2192 335.049 62.0067 335.677C65.2161 336.81 70.5705 374.565 70.5705 374.565Z" fill="#D6D6ED"/>
<path d="M63.7887 386.751H90.2329C91.9647 384.992 93.3296 382.905 94.2481 380.61C95.1665 378.316 95.62 375.861 95.582 373.389C95.5804 370.923 95.0592 368.486 94.0526 366.237L59.9449 366.666C58.559 370.024 58.1834 373.715 58.8646 377.284C59.5457 380.854 61.2538 384.145 63.7779 386.751H63.7887Z" fill="#615AE1"/>
<path d="M146.237 330.122H170.915C171.879 330.122 172.833 330.312 173.723 330.682C174.613 331.052 175.422 331.594 176.103 332.278C176.784 332.962 177.325 333.773 177.693 334.667C178.062 335.56 178.251 336.517 178.251 337.484V364.33L138.899 360.218V337.484C138.899 335.531 139.672 333.659 141.048 332.278C142.424 330.897 144.291 330.122 146.237 330.122Z" fill="#203E92"/>
<path d="M91.9236 330.122H158.091C159.235 330.122 160.369 330.348 161.427 330.787C162.484 331.227 163.445 331.871 164.255 332.683C165.064 333.495 165.706 334.459 166.144 335.521C166.582 336.582 166.808 337.719 166.808 338.867V361.79H83.2119V338.867C83.2119 336.549 84.1296 334.325 85.7632 332.685C87.3968 331.045 89.6126 330.123 91.9236 330.122Z" fill="#95BBF9"/>
<path d="M185.586 387.18L169.13 387.347L169.749 343.147L185.261 343.242L185.586 387.18Z" fill="#203E92"/>
<path d="M196.012 350.383C196.012 346.499 191.601 343.336 186.091 343.209C180.07 343.153 175.148 346.877 175.148 351.491V371.579H185.559L185.779 357.087C191.416 357.046 196.012 354.325 196.012 350.383Z" fill="#CADCFF"/>
<path d="M86.0396 344.026L70.5246 344.121L70.2988 375.571L93.16 375.544L86.0396 344.026Z" fill="#203E92"/>
<path d="M75.4492 350.817C75.4492 347.171 79.8602 344.199 85.3705 344.075C91.3915 344.021 96.3105 347.519 96.3105 351.852V370.73H85.9054L85.6366 357.57C80.0188 357.532 75.4492 354.525 75.4492 350.817Z" fill="#203E92"/>
<path d="M61.2324 350.817C61.2324 347.171 65.3343 344.199 70.4575 344.075C76.0593 344.021 80.6342 347.519 80.6342 351.852V370.73L70.057 370.757V362.47L70.0033 357.537C64.7617 357.499 61.2324 354.525 61.2324 350.817Z" fill="#CADCFF"/>
<path d="M185.554 367.205H70.022L70.0166 387.178H185.554V367.205Z" fill="#203E92"/>
<path d="M179.713 375.589H75.9866C72.6911 375.589 70.022 373.162 70.022 370.196L70.0757 361.733H185.726L185.688 370.185C185.675 373.176 183.005 375.589 179.713 375.589Z" fill="#A9C7F7"/>
<path d="M229.626 387.18C229.635 387.066 229.599 386.952 229.525 386.864C229.452 386.776 229.347 386.72 229.233 386.708H48.1555C48.0307 386.708 47.911 386.758 47.8228 386.846C47.7346 386.935 47.6851 387.055 47.6851 387.18C47.6851 387.305 47.7346 387.425 47.8228 387.514C47.911 387.602 48.0307 387.652 48.1555 387.652H229.233C229.347 387.641 229.453 387.586 229.526 387.497C229.6 387.409 229.635 387.295 229.626 387.18Z" fill="#333343"/>
<path d="M122.596 328.808L121.198 328.15C121.198 328.15 120.446 328.15 119.642 329.577C118.838 331.004 114.828 343.7 115.121 346.836C115.414 349.973 116.76 351.262 116.76 351.262L121.921 339.935L122.596 328.808Z" fill="#F48C7F"/>
<path d="M121.212 328.115C121.212 328.115 120.457 327.829 119.193 330.173C117.93 332.516 116.081 339.595 116.081 339.595L121.672 341.448L122.306 340.132L123.472 328.765L121.212 328.115Z" fill="#D6D6ED"/>
<path d="M128.402 327.085C126.827 327.085 122.924 327.538 121.112 328.107L122.311 347.831L119.392 355.587L136.023 355.369C136.023 355.369 137.407 341.025 138.138 338.684C138.869 336.343 140.635 329.421 140.635 329.421C140.635 329.421 138.114 328.269 134.052 327.562C132.184 327.259 130.295 327.1 128.402 327.085Z" fill="#B1B1DE"/>
<path d="M126.569 333.681L125.69 342.4C125.681 342.589 125.745 342.775 125.868 342.918C125.992 343.061 126.166 343.151 126.354 343.169L129.453 343.622C129.856 343.681 130.488 343.411 130.563 343.053L132.133 334.423C132.148 334.323 132.143 334.221 132.117 334.123C132.091 334.025 132.045 333.934 131.981 333.855C131.918 333.776 131.839 333.711 131.75 333.664C131.66 333.618 131.562 333.591 131.461 333.584L127.413 333.091C127.319 333.074 127.222 333.075 127.129 333.096C127.035 333.116 126.947 333.155 126.868 333.21C126.79 333.265 126.723 333.335 126.672 333.416C126.62 333.497 126.585 333.587 126.569 333.681Z" fill="#3E3D51"/>
<path d="M124.018 341.885C124.018 341.885 120.376 343.797 118.403 344.703C117.002 345.345 115.677 346.389 115.4 347.44C114.989 348.996 116.037 350.434 116.798 351.308C118.075 352.772 123.754 345.914 124.985 344.649C125.343 344.28 125.929 343.541 126.329 343.247L124.018 341.885Z" fill="#F7A491"/>
<path d="M126.316 354.857C126.316 354.857 112.677 353.028 109.979 354.417C107.28 355.806 115.01 362.173 115.01 362.173C115.01 362.173 122.443 361.728 124.636 361.739C126.829 361.75 133.463 362.248 137.329 361.739C141.194 361.229 140.758 355.226 140.017 354.492C139.275 353.759 126.316 354.857 126.316 354.857Z" fill="#ECE1EF"/>
<path d="M117.32 380.908C117.32 380.908 117.782 382.224 116.981 383.103C116.18 383.982 112.823 384.858 112.384 385.333C112.14 385.561 111.996 385.877 111.984 386.212L121.284 386.139V383.318L120.835 381.455L117.32 380.908Z" fill="#F7A491"/>
<path d="M116.398 383.553C116.398 383.553 118.817 384.43 119.994 383.893C121.172 383.356 121.126 383.211 121.467 383.405C121.809 383.599 121.704 386.333 121.704 386.333L111.242 386.479C111.242 386.479 111.145 385.26 111.973 384.821C112.801 384.381 116.398 383.553 116.398 383.553Z" fill="#FBF3FF"/>
<path d="M114.086 356.272C113.207 354.948 110.78 354.174 110.78 354.174C110.78 354.174 109.516 353.635 107.619 354.905C105.721 356.175 106.258 359.832 107.425 362.37C108.592 364.907 116.07 379.761 116.505 381.859L121.101 381.455C121.101 381.455 118.9 369.346 118.365 366.418C117.852 363.597 115.613 358.562 114.086 356.272Z" fill="#FBF3FF"/>
<path d="M131.252 377.785C131.252 377.785 130.875 381.749 130.176 382.846C129.478 383.944 130.214 385.813 130.249 386.066C130.284 386.32 131.709 386.687 133.969 386.468C136.23 386.25 136.195 385.772 136.012 385.004C135.829 384.235 134.625 383.248 134.552 382.517C134.48 381.787 135.246 379.152 135.246 379.152L131.252 377.785Z" fill="#F7A491"/>
<path d="M134.219 387.005C136.479 386.787 136.2 385.773 136.017 385.004C135.901 384.524 135.388 383.958 135.001 383.421C134.495 383.737 133.939 383.964 133.356 384.09C132.334 384.359 130.773 383.874 129.88 383.534C129.675 384.387 129.628 385.27 129.743 386.139C129.781 386.395 131.955 387.223 134.219 387.005Z" fill="#FBF3FF"/>
<path d="M132.856 361.491C132.292 364.727 130.061 380.859 130.061 380.859L135.458 381.468C135.458 381.468 142.095 360.417 141.756 357.197C141.417 353.977 139.081 354.231 139.081 354.231C139.081 354.231 134.17 353.977 132.856 361.491Z" fill="#FBF3FF"/>
<path d="M129.136 339.865C129.547 339.41 129.93 338.929 130.281 338.425C130.902 337.4 130.55 336.537 130.082 337.511C129.755 338.15 129.284 338.704 128.706 339.129C129.079 338.581 129.414 338.008 129.708 337.414C129.786 337.206 129.977 336.651 129.926 336.438C129.829 336.117 129.388 336.262 129.149 337.109C128.977 337.697 128.515 338.053 127.913 338.576C127.077 339.301 126.246 339.676 126.158 339.512C126.042 339.293 126.077 338.549 126.077 338.549C125.613 338.8 125.219 339.163 124.932 339.606C124.602 340.322 124.311 341.056 124.061 341.804C123.739 342.085 123.434 342.385 123.147 342.702C123.147 342.702 124.951 344.889 125.244 344.131C125.297 343.994 125.628 343.862 125.985 343.568C126.77 342.948 127.996 341.95 128.913 341.108C129.891 340.197 130.501 339.199 130.415 339.099C130.208 338.865 129.136 339.865 129.136 339.865Z" fill="#F7A491"/>
<path d="M129.819 324.461L129.144 327.077C129.144 327.077 128.91 330.812 129.743 331.661C130.577 332.511 133.238 327.419 133.238 327.419L134.009 320.904L129.819 324.461Z" fill="#F7A491"/>
<path d="M129.351 326.276C130.937 326.031 133.184 324.326 134.009 320.931L129.819 324.461L129.351 326.276Z" fill="#F47458"/>
<path d="M129.958 314.623C129.454 314.631 128.964 314.795 128.556 315.093C128.147 315.391 127.841 315.808 127.679 316.287C127.375 317.115 127.233 318.245 126.972 319.658C126.493 322.26 127.684 324.782 128.966 324.984C130.248 325.186 133.318 324.386 134.052 320.699C134.369 319.119 134.783 317.048 133.514 315.934C132.509 315.11 131.256 314.648 129.958 314.623Z" fill="#F7A491"/>
<path d="M133.703 323.55C133.703 323.55 138.183 319.504 138.431 316.349C138.678 313.194 135.791 311.433 133.305 311.303C132.287 311.248 131.267 311.285 130.257 311.414C127.757 311.684 126.122 312.781 126.66 314.847C127.38 317.619 132.592 315.37 133.649 316.244C134.512 316.967 133.068 318.647 133.918 319.308C134.705 319.93 134.315 319.747 134.033 320.901C133.842 321.772 133.731 322.658 133.703 323.55Z" fill="#333343"/>
<path d="M135.176 320.017C134.974 320.758 134.447 321.26 134.001 321.136C133.555 321.012 133.359 320.327 133.56 319.572C133.762 318.817 134.289 318.329 134.735 318.453C135.181 318.577 135.391 319.275 135.176 320.017Z" fill="#F7A491"/>
<path d="M140.659 329.429C138.702 328.709 138.208 349.587 138.208 349.587C136.394 350.792 130.749 354.6 129.528 355.199C129.031 355.442 127.701 355.69 127.193 355.906C126.771 356.065 126.371 356.274 125.999 356.529C125.921 356.596 124.085 358.985 124.007 359.32C123.911 359.735 123.618 360.808 123.911 361.027C124.204 361.245 124.76 359.441 124.76 359.441L125.158 358.764C124.846 359.91 123.997 361.674 124.408 361.895C124.819 362.116 125.51 360.415 126.021 359.236C125.66 360.382 125.437 362.186 125.779 362.248C126.12 362.31 126.316 360.229 127.249 359.126C127.593 358.716 128.284 358.886 128.66 358.734C128.992 358.633 129.303 358.473 129.58 358.263L130.655 357.16C131.132 356.931 131.622 356.73 132.122 356.558C132.698 356.367 133.507 355.984 134.251 355.749C138.53 354.455 139.6 354.163 140.912 353.942C142.224 353.721 142.853 350.296 143.038 344.959C143.237 339.026 144.261 330.755 140.659 329.429Z" fill="#F7A491"/>
<path d="M143.511 343.239C143.796 337.551 143.915 330.623 140.659 329.429C139.377 328.957 138.092 337.454 137.361 343.355C139.098 343.495 141.649 343.608 143.511 343.239Z" fill="#D6D6ED"/>
<path d="M120.271 257.198C143.511 255.41 153.871 257.837 151.403 278.929C149.79 292.795 139.778 296.568 116.588 292.798C108.826 291.536 107.044 284.168 107.033 275.733C107.022 265.763 109.611 258.018 120.271 257.198Z" fill="#C0E3FC"/>
<path d="M127.94 280.657C127.588 279.884 127.397 279.048 127.376 278.199C127.356 277.35 127.508 276.505 127.822 275.717C128.999 273.02 132.235 271.941 131.999 268.888C131.98 268.545 131.89 268.21 131.735 267.903C131.58 267.597 131.363 267.326 131.098 267.109C129.779 266.065 127.658 266.618 126.144 267.346C125.139 267.842 124.229 268.513 123.456 269.328L123.026 263.953C124.866 262.687 127.012 261.941 129.238 261.796C133.735 261.443 137.205 263.144 137.571 267.645C137.894 271.763 135.12 273.578 133.27 275.644C132.238 276.785 132.004 277.664 132.082 278.683C132.124 279.253 132.316 279.803 132.639 280.274L127.94 280.657ZM131.166 288.009C126.795 288.354 126.29 282.464 130.703 282.116C135.055 281.774 135.523 287.666 131.168 288.009H131.166Z" fill="#203E92"/>
<path d="M147.527 295.053C143.823 299.368 150.989 302.169 153.588 301.447C157.33 300.403 158.771 292.653 155.884 291.56C153.688 290.73 150.645 291.425 147.527 295.053Z" fill="#BBE4FF"/>
<path d="M152.309 304.688C151.196 304.904 150.965 307.261 152.411 307.159C153.857 307.056 155.492 304.071 152.309 304.688Z" fill="#BBE4FF"/>
<path d="M42 136.98V123.389H50.7467V125.387H44.4783V129.195H49.5478V131.155H44.4783V136.98H42Z" fill="#203E92"/>
<path d="M53.9453 125.854C53.5355 125.869 53.1359 125.723 52.8325 125.446C52.6906 125.316 52.5783 125.156 52.5032 124.979C52.4281 124.801 52.3919 124.609 52.397 124.416C52.3916 124.225 52.4278 124.034 52.503 123.858C52.5782 123.682 52.6906 123.525 52.8325 123.397C53.1469 123.14 53.5399 123 53.9453 123C54.3507 123 54.7437 123.14 55.0581 123.397C55.2 123.525 55.3124 123.682 55.3876 123.858C55.4628 124.034 55.4989 124.225 55.4936 124.416C55.4987 124.609 55.4625 124.801 55.3874 124.979C55.3123 125.156 55.2 125.316 55.0581 125.446C54.7547 125.723 54.3551 125.869 53.9453 125.854ZM52.7088 136.981V127.358H55.1844V136.989L52.7088 136.981Z" fill="#203E92"/>
<path d="M57.7729 136.981V127.358H59.961L60.1545 128.976C60.4489 128.415 60.894 127.948 61.4393 127.628C62.0425 127.282 62.7284 127.108 63.4231 127.124C64.6111 127.124 65.534 127.5 66.1917 128.251C66.8493 129.003 67.1781 130.103 67.1781 131.552V136.989H64.6971V131.784C64.6971 130.955 64.5287 130.326 64.1918 129.896C63.8585 129.454 63.3343 129.235 62.6247 129.235C62.3031 129.226 61.9833 129.287 61.6876 129.414C61.3919 129.541 61.1274 129.731 60.9125 129.972C60.4663 130.465 60.2459 131.15 60.2459 132.032V137.002L57.7729 136.981Z" fill="#203E92"/>
<path d="M73.9517 137.212C73.0992 137.226 72.2604 136.997 71.5325 136.552C70.8216 136.111 70.2407 135.488 69.8498 134.748C69.4268 133.947 69.2132 133.051 69.2289 132.145C69.2125 131.242 69.4263 130.35 69.8498 129.554C70.2413 128.817 70.8223 128.2 71.5325 127.766C72.2628 127.327 73.1007 127.102 73.9517 127.116C74.6072 127.102 75.2569 127.241 75.8494 127.523C76.3782 127.786 76.8308 128.18 77.1638 128.669V123.006H79.6421V136.986H77.4353L77.1665 135.608C76.8321 136.058 76.4152 136.439 75.9381 136.732C75.3349 137.079 74.6458 137.245 73.9517 137.212ZM74.4893 135.039C74.8547 135.051 75.2186 134.985 75.5568 134.845C75.895 134.706 76.1999 134.496 76.4515 134.23C76.9455 133.655 77.2172 132.921 77.2172 132.161C77.2172 131.402 76.9455 130.668 76.4515 130.093C76.1999 129.827 75.895 129.617 75.5568 129.477C75.2186 129.338 74.8547 129.272 74.4893 129.284C74.1249 129.275 73.7627 129.342 73.4257 129.481C73.0888 129.62 72.7845 129.829 72.5324 130.093C72.2728 130.366 72.0704 130.69 71.9375 131.043C71.8045 131.396 71.7436 131.773 71.7583 132.151C71.7445 132.531 71.8058 132.91 71.9386 133.266C72.0715 133.623 72.2733 133.949 72.5324 134.227C72.7815 134.492 73.0832 134.701 73.4181 134.84C73.7529 134.98 74.1133 135.048 74.4758 135.039H74.4893Z" fill="#203E92"/>
<path d="M91.0392 136.981C90.0321 136.981 89.2257 136.734 88.62 136.242C88.0143 135.749 87.7105 134.875 87.7088 133.62V129.427H86.0664V127.358H87.7114L88.0017 124.775H90.1898V127.358H92.7836V129.435H90.1898V133.647C90.1898 134.115 90.2892 134.436 90.4881 134.61C90.7925 134.818 91.1591 134.913 91.5257 134.88H92.7245V136.997L91.0392 136.981Z" fill="#203E92"/>
<path d="M94.9126 136.981V123H97.3882V128.825C97.7057 128.299 98.1564 127.866 98.6946 127.571C99.273 127.262 99.9205 127.105 100.576 127.116C101.764 127.116 102.684 127.491 103.334 128.243C103.985 128.994 104.311 130.095 104.312 131.544V136.981H101.853V131.776C101.853 130.947 101.689 130.318 101.361 129.888C101.03 129.446 100.512 129.227 99.802 129.227C99.4778 129.219 99.1555 129.28 98.8569 129.407C98.5583 129.534 98.2903 129.724 98.071 129.963C97.6113 130.457 97.3828 131.142 97.3828 132.024V136.994L94.9126 136.981Z" fill="#203E92"/>
<path d="M111.342 137.212C110.445 137.23 109.56 137.016 108.769 136.592C108.03 136.187 107.419 135.581 107.006 134.845C106.57 134.048 106.35 133.151 106.369 132.242C106.352 131.317 106.568 130.402 106.998 129.583C107.398 128.826 108.001 128.196 108.74 127.766C109.54 127.318 110.445 127.094 111.36 127.116C112.233 127.098 113.095 127.313 113.857 127.739C114.567 128.138 115.153 128.726 115.551 129.438C115.961 130.169 116.171 130.996 116.161 131.835C116.161 131.978 116.161 132.126 116.161 132.28C116.161 132.434 116.145 132.598 116.134 132.765H108.826C108.833 133.098 108.907 133.425 109.041 133.729C109.176 134.033 109.37 134.306 109.61 134.535C110.078 134.96 110.691 135.189 111.323 135.174C111.77 135.189 112.211 135.071 112.591 134.834C112.924 134.618 113.189 134.312 113.355 133.952H115.871C115.686 134.562 115.377 135.127 114.962 135.611C114.539 136.112 114.01 136.514 113.414 136.786C112.762 137.077 112.055 137.223 111.342 137.212ZM111.36 129.136C110.781 129.125 110.214 129.306 109.748 129.651C109.259 130.034 108.939 130.595 108.858 131.212H113.645C113.639 130.926 113.573 130.643 113.454 130.383C113.334 130.123 113.162 129.89 112.949 129.699C112.508 129.318 111.942 129.117 111.36 129.136Z" fill="#203E92"/>
<path d="M122.916 136.98V123.389H128.354C129.759 123.389 130.834 123.715 131.579 124.368C131.94 124.678 132.227 125.064 132.419 125.5C132.612 125.935 132.705 126.408 132.692 126.884C132.729 127.629 132.483 128.36 132.004 128.931C131.559 129.434 130.977 129.796 130.329 129.972C131.085 130.115 131.765 130.524 132.246 131.126C132.747 131.731 133.015 132.497 133.001 133.283C133.014 133.785 132.916 134.283 132.716 134.742C132.515 135.202 132.216 135.612 131.84 135.942C131.066 136.64 129.969 136.989 128.55 136.991L122.916 136.98ZM125.392 129.098H127.986C128.564 129.137 129.137 128.964 129.598 128.612C129.954 128.248 130.154 127.758 130.154 127.248C130.154 126.738 129.954 126.248 129.598 125.883C129.23 125.554 128.679 125.387 127.945 125.387H125.392V129.098ZM125.392 134.961H128.16C128.774 134.998 129.381 134.816 129.872 134.446C130.077 134.267 130.238 134.044 130.344 133.794C130.45 133.543 130.497 133.272 130.483 133C130.496 132.718 130.446 132.437 130.335 132.178C130.224 131.918 130.056 131.688 129.843 131.503C129.353 131.121 128.742 130.93 128.123 130.964H125.392V134.961Z" fill="#203E92"/>
<path d="M139.732 137.212C138.835 137.23 137.95 137.016 137.159 136.592C136.42 136.187 135.81 135.582 135.399 134.845C134.961 134.049 134.74 133.151 134.759 132.242C134.742 131.317 134.958 130.402 135.388 129.583C135.788 128.826 136.391 128.196 137.13 127.766C137.931 127.318 138.837 127.094 139.753 127.116C140.625 127.098 141.486 127.313 142.248 127.739C142.957 128.138 143.543 128.726 143.941 129.438C144.352 130.168 144.563 130.996 144.551 131.835C144.551 131.977 144.551 132.125 144.551 132.28C144.551 132.436 144.535 132.598 144.522 132.765H137.216C137.224 133.098 137.298 133.425 137.432 133.728C137.567 134.032 137.76 134.306 138.001 134.535C138.469 134.96 139.082 135.188 139.713 135.174C140.16 135.189 140.602 135.071 140.982 134.834C141.314 134.618 141.579 134.312 141.745 133.952H144.261C144.079 134.562 143.772 135.126 143.36 135.611C142.937 136.112 142.408 136.514 141.812 136.786C141.158 137.079 140.448 137.224 139.732 137.212ZM139.753 129.136C139.174 129.125 138.607 129.306 138.14 129.651C137.652 130.034 137.332 130.595 137.251 131.212H142.03C142.023 130.926 141.958 130.643 141.838 130.383C141.719 130.123 141.547 129.89 141.334 129.699C140.896 129.32 140.332 129.119 139.753 129.136Z" fill="#203E92"/>
<path d="M150.61 137.212C149.841 137.228 149.077 137.086 148.365 136.794C147.761 136.547 147.228 136.15 146.817 135.64C146.429 135.147 146.187 134.555 146.118 133.93H148.615C148.7 134.318 148.924 134.66 149.244 134.893C149.629 135.171 150.096 135.311 150.569 135.29C150.993 135.326 151.415 135.21 151.76 134.961C151.876 134.871 151.97 134.756 152.035 134.625C152.101 134.494 152.136 134.349 152.139 134.203C152.152 134.023 152.107 133.843 152.01 133.691C151.913 133.539 151.77 133.422 151.602 133.359C151.111 133.172 150.606 133.026 150.091 132.922C149.68 132.83 149.26 132.722 148.833 132.593C148.427 132.47 148.035 132.304 147.664 132.097C147.321 131.908 147.025 131.642 146.801 131.32C146.574 130.971 146.459 130.561 146.473 130.144C146.469 129.731 146.558 129.322 146.734 128.948C146.91 128.575 147.168 128.246 147.489 127.987C148.166 127.404 149.118 127.113 150.344 127.113C151.478 127.113 152.385 127.378 153.064 127.909C153.401 128.175 153.682 128.507 153.889 128.884C154.097 129.261 154.228 129.675 154.273 130.104H151.93C151.79 129.392 151.252 129.025 150.317 129.025C149.939 129.001 149.564 129.095 149.242 129.295C149.127 129.367 149.032 129.467 148.967 129.586C148.901 129.705 148.866 129.838 148.865 129.974C148.865 130.244 149.051 130.484 149.427 130.654C149.908 130.856 150.406 131.012 150.916 131.12C151.588 131.274 152.204 131.447 152.766 131.633C153.278 131.791 153.74 132.079 154.109 132.469C154.471 132.913 154.651 133.479 154.612 134.052C154.633 134.627 154.47 135.194 154.147 135.67C153.799 136.171 153.316 136.562 152.755 136.797C152.077 137.086 151.346 137.227 150.61 137.212Z" fill="#203E92"/>
<path d="M160.771 136.981C159.764 136.981 158.957 136.734 158.352 136.242C157.746 135.749 157.442 134.875 157.44 133.62V129.427H155.795V127.358H157.432L157.723 124.775H159.911V127.358H162.505V129.435H159.911V133.647C159.911 134.114 160.01 134.435 160.212 134.61C160.515 134.818 160.881 134.913 161.247 134.88H162.445V136.997L160.771 136.981Z" fill="#203E92"/>
<path d="M169.305 136.98V123.389H171.78V129.052H177.86V123.389H180.339V136.98H177.86V131.048H171.783V136.98H169.305Z" fill="#203E92"/>
<path d="M187.516 137.212C186.639 137.226 185.775 137.005 185.011 136.573C184.274 136.151 183.665 135.537 183.248 134.796C182.805 133.991 182.581 133.083 182.6 132.164C182.581 131.244 182.808 130.336 183.258 129.535C183.679 128.794 184.291 128.18 185.03 127.758C185.795 127.336 186.653 127.116 187.525 127.116C188.398 127.116 189.256 127.336 190.021 127.758C190.758 128.179 191.368 128.793 191.785 129.535C192.21 130.346 192.432 131.249 192.432 132.165C192.432 133.082 192.21 133.985 191.785 134.796C191.366 135.539 190.753 136.153 190.013 136.573C189.251 137.003 188.39 137.223 187.516 137.212ZM187.516 135.055C187.831 135.057 188.144 134.993 188.433 134.868C188.723 134.742 188.984 134.558 189.199 134.327C189.677 133.841 189.916 133.122 189.916 132.169C189.916 131.217 189.677 130.497 189.199 130.012C188.983 129.782 188.723 129.599 188.435 129.474C188.146 129.348 187.835 129.284 187.52 129.284C187.206 129.284 186.894 129.348 186.606 129.474C186.317 129.599 186.057 129.782 185.841 130.012C185.372 130.497 185.136 131.217 185.135 132.169C185.133 133.122 185.368 133.841 185.841 134.327C186.054 134.559 186.313 134.744 186.602 134.87C186.89 134.996 187.202 135.06 187.516 135.058V135.055Z" fill="#203E92"/>
<path d="M198.606 137.212C197.837 137.228 197.072 137.086 196.359 136.794C195.755 136.547 195.222 136.15 194.811 135.64C194.424 135.147 194.183 134.555 194.115 133.93H196.612C196.697 134.318 196.921 134.66 197.241 134.893C197.626 135.171 198.092 135.311 198.566 135.29C198.989 135.326 199.412 135.209 199.757 134.961C199.872 134.871 199.966 134.756 200.031 134.625C200.096 134.493 200.131 134.349 200.133 134.203C200.147 134.023 200.102 133.843 200.005 133.691C199.908 133.538 199.764 133.422 199.596 133.359C199.105 133.172 198.599 133.026 198.085 132.922C197.674 132.83 197.254 132.722 196.827 132.593C196.42 132.47 196.028 132.304 195.658 132.097C195.314 131.908 195.019 131.642 194.795 131.32C194.566 130.972 194.452 130.561 194.467 130.144C194.463 129.731 194.552 129.322 194.728 128.948C194.904 128.575 195.162 128.246 195.483 127.987C196.16 127.404 197.112 127.113 198.338 127.113C199.472 127.113 200.378 127.378 201.055 127.909C201.392 128.175 201.673 128.507 201.881 128.884C202.088 129.261 202.219 129.675 202.265 130.104H199.923C199.782 129.385 199.244 129.025 198.311 129.025C197.933 129.001 197.557 129.095 197.235 129.295C197.121 129.367 197.026 129.467 196.961 129.586C196.895 129.705 196.86 129.838 196.859 129.974C196.859 130.244 197.045 130.484 197.418 130.654C197.9 130.856 198.399 131.012 198.91 131.12C199.579 131.274 200.198 131.447 200.757 131.633C201.269 131.791 201.732 132.079 202.101 132.469C202.462 132.913 202.642 133.479 202.603 134.052C202.625 134.627 202.462 135.194 202.138 135.67C201.789 136.17 201.307 136.561 200.746 136.797C200.07 137.085 199.341 137.226 198.606 137.212Z" fill="#203E92"/>
<path d="M204.797 141.252V127.358H207.004L207.273 128.736C207.607 128.286 208.024 127.903 208.501 127.609C209.103 127.262 209.791 127.094 210.485 127.124C211.337 127.11 212.176 127.339 212.904 127.784C213.616 128.226 214.197 128.85 214.589 129.591C214.996 130.396 215.207 131.286 215.207 132.188C215.207 133.091 214.996 133.98 214.589 134.785C214.195 135.52 213.613 136.136 212.904 136.571C212.174 137.01 211.336 137.235 210.485 137.221C209.83 137.236 209.181 137.097 208.59 136.813C208.059 136.552 207.605 136.157 207.273 135.667V141.26L204.797 141.252ZM209.966 135.05C210.33 135.058 210.691 134.991 211.028 134.852C211.364 134.712 211.668 134.504 211.92 134.241C212.18 133.967 212.382 133.643 212.515 133.289C212.648 132.935 212.709 132.558 212.694 132.18C212.708 131.8 212.646 131.421 212.513 131.065C212.38 130.708 212.179 130.382 211.92 130.104C211.399 129.586 210.694 129.295 209.96 129.295C209.227 129.295 208.522 129.586 208.001 130.104C207.508 130.68 207.238 131.413 207.238 132.172C207.238 132.931 207.508 133.665 208.001 134.241C208.254 134.505 208.56 134.712 208.898 134.85C209.237 134.988 209.601 135.052 209.966 135.039V135.05Z" fill="#203E92"/>
<path d="M218.753 125.854C218.343 125.869 217.943 125.723 217.64 125.446C217.498 125.316 217.386 125.156 217.311 124.979C217.236 124.801 217.199 124.609 217.205 124.416C217.199 124.225 217.235 124.034 217.311 123.858C217.386 123.682 217.498 123.525 217.64 123.397C217.955 123.14 218.348 123 218.753 123C219.158 123 219.551 123.14 219.866 123.397C220.008 123.525 220.12 123.682 220.195 123.858C220.27 124.034 220.307 124.225 220.301 124.416C220.306 124.609 220.27 124.801 220.195 124.979C220.12 125.156 220.008 125.316 219.866 125.446C219.562 125.723 219.163 125.869 218.753 125.854ZM217.514 136.981V127.358H219.989V136.989L217.514 136.981Z" fill="#203E92"/>
<path d="M226.86 136.981C225.855 136.981 225.048 136.734 224.441 136.242C223.833 135.749 223.53 134.875 223.532 133.62V129.427H221.887V127.358H223.532L223.823 124.775H226.011V127.358H228.602V129.435H226.011V133.647C226.011 134.115 226.11 134.436 226.309 134.61C226.612 134.817 226.978 134.912 227.344 134.88H228.545V136.997L226.86 136.981Z" fill="#203E92"/>
<path d="M234.04 137.212C233.341 137.239 232.645 137.103 232.008 136.816C231.519 136.586 231.108 136.218 230.825 135.756C230.566 135.315 230.432 134.812 230.438 134.3C230.428 133.88 230.518 133.465 230.699 133.087C230.881 132.709 231.15 132.38 231.483 132.126C232.179 131.569 233.224 131.29 234.62 131.29H237.058V131.058C237.058 130.397 236.871 129.911 236.496 129.602C236.103 129.285 235.609 129.119 235.104 129.136C234.64 129.124 234.182 129.249 233.787 129.494C233.603 129.611 233.445 129.766 233.325 129.949C233.205 130.132 233.125 130.338 233.091 130.554H230.672C230.722 129.889 230.968 129.253 231.379 128.728C231.794 128.202 232.336 127.791 232.954 127.534C233.641 127.247 234.379 127.105 235.123 127.116C236.492 127.116 237.567 127.459 238.348 128.146C239.13 128.833 239.523 129.803 239.528 131.058V136.991H237.421L237.187 135.438C236.902 135.958 236.493 136.398 235.996 136.719C235.407 137.073 234.726 137.245 234.04 137.212ZM234.599 135.271C234.909 135.288 235.22 135.234 235.507 135.113C235.794 134.992 236.05 134.807 236.255 134.572C236.66 134.078 236.918 133.479 236.999 132.844H234.889C234.233 132.844 233.76 132.965 233.478 133.202C233.344 133.307 233.235 133.441 233.161 133.595C233.087 133.748 233.049 133.916 233.05 134.087C233.043 134.257 233.079 134.426 233.153 134.578C233.228 134.731 233.339 134.862 233.478 134.961C233.81 135.182 234.203 135.291 234.601 135.271H234.599Z" fill="#203E92"/>
<path d="M241.899 136.98V123H244.375V136.98H241.899Z" fill="#203E92"/>
<path d="M95.0714 160.513C94.3726 160.539 93.6772 160.403 93.0393 160.116C92.5504 159.886 92.1392 159.518 91.8565 159.056C91.598 158.615 91.4642 158.112 91.4695 157.6C91.4597 157.181 91.5493 156.765 91.7311 156.387C91.9129 156.009 92.1816 155.68 92.5151 155.427C93.2104 154.867 94.256 154.589 95.652 154.591H98.09V154.359C98.09 153.697 97.9027 153.212 97.5282 152.902C97.1351 152.584 96.6408 152.418 96.1358 152.436C95.6713 152.424 95.2136 152.549 94.8187 152.794C94.6345 152.912 94.4772 153.067 94.3571 153.249C94.2371 153.432 94.1571 153.638 94.1225 153.854H91.7033C91.7534 153.189 91.9994 152.553 92.4103 152.029C92.8258 151.503 93.3678 151.092 93.9854 150.834C94.67 150.549 95.4053 150.406 96.1466 150.416C97.5138 150.416 98.589 150.759 99.3721 151.446C100.155 152.133 100.549 153.104 100.552 154.359V160.292H98.4448L98.2109 158.738C97.9262 159.258 97.5169 159.698 97.0202 160.019C96.4328 160.372 95.7551 160.543 95.0714 160.513ZM95.6305 158.571C95.9412 158.588 96.2518 158.535 96.5388 158.414C96.8257 158.293 97.0813 158.108 97.2863 157.873C97.6921 157.378 97.9502 156.779 98.0308 156.144H95.9208C95.2649 156.144 94.7918 156.265 94.5096 156.503C94.3755 156.607 94.2672 156.741 94.1931 156.895C94.119 157.048 94.081 157.217 94.0822 157.387C94.0749 157.557 94.1102 157.726 94.1849 157.879C94.2596 158.031 94.3712 158.163 94.5096 158.261C94.8345 158.478 95.2191 158.586 95.609 158.571H95.6305Z" fill="#203E92"/>
<path d="M102.915 160.281V150.651H105.121L105.353 152.455C105.697 151.819 106.211 151.292 106.836 150.932C107.462 150.573 108.175 150.394 108.895 150.416V153.037H108.196C107.701 153.029 107.208 153.115 106.745 153.291C106.322 153.456 105.97 153.765 105.75 154.164C105.483 154.7 105.359 155.295 105.39 155.893V160.281H102.915Z" fill="#203E92"/>
<path d="M115.011 160.513C114.133 160.526 113.267 160.305 112.503 159.871C111.767 159.452 111.159 158.84 110.742 158.102C110.298 157.297 110.074 156.389 110.094 155.47C110.075 154.55 110.303 153.642 110.753 152.84C111.174 152.099 111.786 151.486 112.524 151.063C113.289 150.642 114.148 150.421 115.02 150.421C115.893 150.421 116.751 150.642 117.516 151.063C118.253 151.484 118.862 152.098 119.277 152.84C119.704 153.651 119.927 154.554 119.927 155.471C119.927 156.388 119.704 157.291 119.277 158.102C118.86 158.845 118.248 159.458 117.508 159.876C116.746 160.306 115.885 160.525 115.011 160.513ZM115.011 158.355C115.326 158.357 115.638 158.293 115.928 158.168C116.218 158.043 116.478 157.858 116.693 157.627C117.172 157.142 117.411 156.423 117.411 155.47C117.411 154.517 117.172 153.798 116.693 153.312C116.478 153.082 116.218 152.899 115.929 152.774C115.641 152.648 115.329 152.584 115.015 152.584C114.7 152.584 114.389 152.648 114.1 152.774C113.812 152.899 113.552 153.082 113.336 153.312C112.867 153.798 112.631 154.517 112.629 155.47C112.627 156.423 112.863 157.142 113.336 157.627C113.548 157.862 113.806 158.049 114.095 158.177C114.383 158.305 114.695 158.372 115.011 158.371V158.355Z" fill="#203E92"/>
<path d="M125.733 160.513C124.53 160.513 123.604 160.138 122.953 159.388C122.303 158.638 121.978 157.538 121.978 156.087V150.651H124.434V155.853C124.434 156.681 124.601 157.317 124.937 157.757C125.273 158.196 125.803 158.417 126.526 158.417C126.844 158.425 127.161 158.363 127.453 158.235C127.746 158.107 128.007 157.917 128.219 157.678C128.663 157.188 128.886 156.5 128.886 155.621V150.651H131.359V160.281H129.171L128.977 158.649C128.682 159.211 128.236 159.678 127.689 159.998C127.097 160.346 126.42 160.525 125.733 160.513Z" fill="#203E92"/>
<path d="M133.899 160.281V150.651H136.084L136.278 152.269C136.573 151.707 137.019 151.24 137.565 150.92C138.168 150.574 138.854 150.4 139.549 150.416C140.737 150.416 141.66 150.792 142.318 151.543C142.975 152.295 143.304 153.395 143.304 154.844V160.281H140.826V155.076C140.826 154.249 140.658 153.62 140.323 153.188C139.987 152.746 139.466 152.527 138.756 152.527C138.434 152.518 138.115 152.579 137.819 152.706C137.523 152.833 137.259 153.023 137.044 153.264C136.598 153.757 136.375 154.442 136.375 155.324V160.294L133.899 160.281Z" fill="#203E92"/>
<path d="M150.078 160.513C149.225 160.526 148.386 160.297 147.658 159.852C146.948 159.411 146.367 158.789 145.976 158.048C145.553 157.247 145.339 156.352 145.355 155.445C145.339 154.543 145.552 153.651 145.976 152.854C146.367 152.118 146.948 151.5 147.658 151.066C148.389 150.627 149.227 150.402 150.078 150.416C150.733 150.402 151.383 150.542 151.975 150.823C152.504 151.086 152.957 151.481 153.29 151.969V146.306H155.768V160.286H153.561L153.292 158.908C152.958 159.358 152.541 159.74 152.064 160.033C151.461 160.378 150.772 160.545 150.078 160.513ZM150.599 158.339C150.965 158.351 151.329 158.285 151.668 158.145C152.006 158.006 152.312 157.796 152.564 157.53C153.058 156.955 153.33 156.221 153.33 155.462C153.33 154.702 153.058 153.968 152.564 153.393C152.041 152.879 151.337 152.591 150.605 152.591C149.872 152.591 149.168 152.879 148.645 153.393C148.385 153.667 148.183 153.99 148.05 154.343C147.917 154.697 147.856 155.073 147.871 155.451C147.857 155.831 147.918 156.21 148.051 156.567C148.184 156.923 148.386 157.249 148.645 157.527C148.895 157.793 149.199 158.003 149.535 158.143C149.872 158.283 150.235 158.35 150.599 158.339Z" fill="#203E92"/>
<path d="M164.091 164.552L166.316 159.639H165.736L162.002 150.651H164.69L167.378 157.425L170.184 150.651H172.816L166.719 164.552H164.091Z" fill="#203E92"/>
<path d="M178.218 160.513C177.34 160.526 176.475 160.305 175.71 159.871C174.974 159.45 174.366 158.837 173.95 158.096C173.506 157.292 173.282 156.384 173.302 155.464C173.282 154.544 173.51 153.636 173.961 152.835C174.381 152.094 174.992 151.48 175.729 151.058C176.495 150.637 177.353 150.416 178.226 150.416C179.099 150.416 179.958 150.637 180.723 151.058C181.46 151.479 182.068 152.094 182.484 152.835C182.909 153.646 183.132 154.549 183.132 155.466C183.132 156.382 182.909 157.285 182.484 158.096C182.067 158.839 181.454 159.453 180.713 159.871C179.952 160.302 179.092 160.524 178.218 160.513ZM178.218 158.355C178.534 158.356 178.846 158.292 179.135 158.167C179.425 158.042 179.685 157.858 179.901 157.627C180.376 157.142 180.614 156.423 180.616 155.47C180.618 154.517 180.379 153.798 179.901 153.312C179.686 153.082 179.425 152.899 179.137 152.774C178.848 152.648 178.537 152.584 178.222 152.584C177.908 152.584 177.597 152.648 177.308 152.774C177.019 152.899 176.759 153.082 176.544 153.312C176.071 153.798 175.837 154.52 175.837 155.47C175.837 156.419 176.071 157.15 176.544 157.627C176.755 157.862 177.014 158.049 177.302 158.177C177.591 158.306 177.903 158.372 178.218 158.371V158.355Z" fill="#203E92"/>
<path d="M188.938 160.513C187.739 160.513 186.813 160.138 186.161 159.388C185.509 158.638 185.183 157.538 185.183 156.087V150.651H187.642V155.853C187.642 156.681 187.809 157.317 188.145 157.757C188.481 158.196 189.01 158.417 189.731 158.417C190.05 158.425 190.366 158.363 190.659 158.236C190.951 158.108 191.213 157.918 191.424 157.678C191.87 157.188 192.093 156.5 192.093 155.621V150.651H194.569V160.281H192.376L192.182 158.649C191.887 159.21 191.441 159.677 190.895 159.998C190.301 160.345 189.625 160.523 188.938 160.513Z" fill="#203E92"/>
<path d="M113.995 450.284L111.385 441.356H113.671L115.219 447.782L117.019 441.356H119.575L121.375 447.782L122.941 441.356H125.227L122.599 450.284H120.205L118.297 443.606L116.389 450.284H113.995ZM127.922 439.97C127.502 439.97 127.154 439.844 126.878 439.592C126.614 439.34 126.482 439.022 126.482 438.638C126.482 438.254 126.614 437.942 126.878 437.702C127.154 437.45 127.502 437.324 127.922 437.324C128.342 437.324 128.684 437.45 128.948 437.702C129.224 437.942 129.362 438.254 129.362 438.638C129.362 439.022 129.224 439.34 128.948 439.592C128.684 439.844 128.342 439.97 127.922 439.97ZM126.77 450.284V441.356H129.074V450.284H126.77ZM135.457 450.284C134.521 450.284 133.771 450.056 133.207 449.6C132.643 449.144 132.361 448.334 132.361 447.17V443.282H130.831V441.356H132.361L132.631 438.962H134.665V441.356H137.077V443.282H134.665V447.188C134.665 447.62 134.755 447.92 134.935 448.088C135.127 448.244 135.451 448.322 135.907 448.322H137.023V450.284H135.457ZM139.055 450.284V437.324H141.359V442.724C141.659 442.232 142.061 441.848 142.565 441.572C143.081 441.284 143.669 441.14 144.329 441.14C145.433 441.14 146.285 441.488 146.885 442.184C147.497 442.88 147.803 443.9 147.803 445.244V450.284H145.517V445.46C145.517 444.692 145.361 444.104 145.049 443.696C144.749 443.288 144.269 443.084 143.609 443.084C142.961 443.084 142.421 443.312 141.989 443.768C141.569 444.224 141.359 444.86 141.359 445.676V450.284H139.055ZM151.248 439.97C150.828 439.97 150.48 439.844 150.204 439.592C149.94 439.34 149.808 439.022 149.808 438.638C149.808 438.254 149.94 437.942 150.204 437.702C150.48 437.45 150.828 437.324 151.248 437.324C151.668 437.324 152.01 437.45 152.274 437.702C152.55 437.942 152.688 438.254 152.688 438.638C152.688 439.022 152.55 439.34 152.274 439.592C152.01 439.844 151.668 439.97 151.248 439.97ZM150.096 450.284V441.356H152.4V450.284H150.096ZM154.805 450.284V441.356H156.839L157.019 442.868C157.295 442.34 157.691 441.92 158.207 441.608C158.735 441.296 159.353 441.14 160.061 441.14C161.165 441.14 162.023 441.488 162.635 442.184C163.247 442.88 163.553 443.9 163.553 445.244V450.284H161.249V445.46C161.249 444.692 161.093 444.104 160.781 443.696C160.469 443.288 159.983 443.084 159.323 443.084C158.675 443.084 158.141 443.312 157.721 443.768C157.313 444.224 157.109 444.86 157.109 445.676V450.284H154.805ZM173.124 450.5C172.356 450.5 171.726 450.38 171.234 450.14C170.742 449.888 170.376 449.558 170.136 449.15C169.896 448.742 169.776 448.292 169.776 447.8C169.776 446.972 170.1 446.3 170.748 445.784C171.396 445.268 172.368 445.01 173.664 445.01H175.932V444.794C175.932 444.182 175.758 443.732 175.41 443.444C175.062 443.156 174.63 443.012 174.114 443.012C173.646 443.012 173.238 443.126 172.89 443.354C172.542 443.57 172.326 443.894 172.242 444.326H169.992C170.052 443.678 170.268 443.114 170.64 442.634C171.024 442.154 171.516 441.788 172.116 441.536C172.716 441.272 173.388 441.14 174.132 441.14C175.404 441.14 176.406 441.458 177.138 442.094C177.87 442.73 178.236 443.63 178.236 444.794V450.284H176.274L176.058 448.844C175.794 449.324 175.422 449.72 174.942 450.032C174.474 450.344 173.868 450.5 173.124 450.5ZM173.646 448.7C174.306 448.7 174.816 448.484 175.176 448.052C175.548 447.62 175.782 447.086 175.878 446.45H173.916C173.304 446.45 172.866 446.564 172.602 446.792C172.338 447.008 172.206 447.278 172.206 447.602C172.206 447.95 172.338 448.22 172.602 448.412C172.866 448.604 173.214 448.7 173.646 448.7ZM103.988 473.284V466.282H102.764V464.356H103.988V463.312C103.988 462.232 104.258 461.464 104.798 461.008C105.35 460.552 106.094 460.324 107.03 460.324H108.02V462.286H107.39C106.994 462.286 106.712 462.364 106.544 462.52C106.376 462.676 106.292 462.94 106.292 463.312V464.356H108.218V466.282H106.292V473.284H103.988ZM114.029 473.5C113.129 473.5 112.331 473.308 111.635 472.924C110.939 472.54 110.393 472 109.997 471.304C109.601 470.608 109.403 469.804 109.403 468.892C109.403 467.968 109.595 467.146 109.979 466.426C110.375 465.706 110.915 465.148 111.599 464.752C112.295 464.344 113.111 464.14 114.047 464.14C114.923 464.14 115.697 464.332 116.369 464.716C117.041 465.1 117.563 465.628 117.935 466.3C118.319 466.96 118.511 467.698 118.511 468.514C118.511 468.646 118.505 468.784 118.493 468.928C118.493 469.072 118.487 469.222 118.475 469.378H111.689C111.737 470.074 111.977 470.62 112.409 471.016C112.853 471.412 113.387 471.61 114.011 471.61C114.479 471.61 114.869 471.508 115.181 471.304C115.505 471.088 115.745 470.812 115.901 470.476H118.241C118.073 471.04 117.791 471.556 117.395 472.024C117.011 472.48 116.531 472.84 115.955 473.104C115.391 473.368 114.749 473.5 114.029 473.5ZM114.047 466.012C113.483 466.012 112.985 466.174 112.553 466.498C112.121 466.81 111.845 467.29 111.725 467.938H116.171C116.135 467.35 115.919 466.882 115.523 466.534C115.127 466.186 114.635 466.012 114.047 466.012ZM121.843 473.284L119.233 464.356H121.519L123.067 470.782L124.867 464.356H127.423L129.223 470.782L130.789 464.356H133.075L130.447 473.284H128.053L126.145 466.606L124.237 473.284H121.843ZM143.192 473.5C142.28 473.5 141.476 473.302 140.78 472.906C140.084 472.51 139.532 471.958 139.124 471.25C138.728 470.542 138.53 469.732 138.53 468.82C138.53 467.908 138.728 467.098 139.124 466.39C139.532 465.682 140.084 465.13 140.78 464.734C141.476 464.338 142.28 464.14 143.192 464.14C144.332 464.14 145.292 464.44 146.072 465.04C146.852 465.628 147.35 466.444 147.566 467.488H145.136C145.016 467.056 144.776 466.72 144.416 466.48C144.068 466.228 143.654 466.102 143.174 466.102C142.538 466.102 141.998 466.342 141.554 466.822C141.11 467.302 140.888 467.968 140.888 468.82C140.888 469.672 141.11 470.338 141.554 470.818C141.998 471.298 142.538 471.538 143.174 471.538C143.654 471.538 144.068 471.418 144.416 471.178C144.776 470.938 145.016 470.596 145.136 470.152H147.566C147.35 471.16 146.852 471.97 146.072 472.582C145.292 473.194 144.332 473.5 143.192 473.5ZM149.611 473.284V460.324H151.915V473.284H149.611ZM155.511 462.97C155.091 462.97 154.743 462.844 154.467 462.592C154.203 462.34 154.071 462.022 154.071 461.638C154.071 461.254 154.203 460.942 154.467 460.702C154.743 460.45 155.091 460.324 155.511 460.324C155.931 460.324 156.273 460.45 156.537 460.702C156.813 460.942 156.951 461.254 156.951 461.638C156.951 462.022 156.813 462.34 156.537 462.592C156.273 462.844 155.931 462.97 155.511 462.97ZM154.359 473.284V464.356H156.663V473.284H154.359ZM163.442 473.5C162.53 473.5 161.726 473.302 161.03 472.906C160.334 472.51 159.782 471.958 159.374 471.25C158.978 470.542 158.78 469.732 158.78 468.82C158.78 467.908 158.978 467.098 159.374 466.39C159.782 465.682 160.334 465.13 161.03 464.734C161.726 464.338 162.53 464.14 163.442 464.14C164.582 464.14 165.542 464.44 166.322 465.04C167.102 465.628 167.6 466.444 167.816 467.488H165.386C165.266 467.056 165.026 466.72 164.666 466.48C164.318 466.228 163.904 466.102 163.424 466.102C162.788 466.102 162.248 466.342 161.804 466.822C161.36 467.302 161.138 467.968 161.138 468.82C161.138 469.672 161.36 470.338 161.804 470.818C162.248 471.298 162.788 471.538 163.424 471.538C163.904 471.538 164.318 471.418 164.666 471.178C165.026 470.938 165.266 470.596 165.386 470.152H167.816C167.6 471.16 167.102 471.97 166.322 472.582C165.542 473.194 164.582 473.5 163.442 473.5ZM169.861 473.284V460.324H172.165V467.974L175.333 464.356H178.069L174.415 468.424L178.663 473.284H175.783L172.165 468.802V473.284H169.861ZM183.342 473.5C182.55 473.5 181.854 473.374 181.254 473.122C180.654 472.858 180.174 472.498 179.814 472.042C179.454 471.586 179.238 471.058 179.166 470.458H181.488C181.56 470.806 181.752 471.106 182.064 471.358C182.388 471.598 182.802 471.718 183.306 471.718C183.81 471.718 184.176 471.616 184.404 471.412C184.644 471.208 184.764 470.974 184.764 470.71C184.764 470.326 184.596 470.068 184.26 469.936C183.924 469.792 183.456 469.654 182.856 469.522C182.472 469.438 182.082 469.336 181.686 469.216C181.29 469.096 180.924 468.946 180.588 468.766C180.264 468.574 180 468.334 179.796 468.046C179.592 467.746 179.49 467.38 179.49 466.948C179.49 466.156 179.802 465.49 180.426 464.95C181.062 464.41 181.95 464.14 183.09 464.14C184.146 464.14 184.986 464.386 185.61 464.878C186.246 465.37 186.624 466.048 186.744 466.912H184.566C184.434 466.252 183.936 465.922 183.072 465.922C182.64 465.922 182.304 466.006 182.064 466.174C181.836 466.342 181.722 466.552 181.722 466.804C181.722 467.068 181.896 467.278 182.244 467.434C182.592 467.59 183.054 467.734 183.63 467.866C184.254 468.01 184.824 468.172 185.34 468.352C185.868 468.52 186.288 468.778 186.6 469.126C186.912 469.462 187.068 469.948 187.068 470.584C187.08 471.136 186.936 471.634 186.636 472.078C186.336 472.522 185.904 472.87 185.34 473.122C184.776 473.374 184.11 473.5 183.342 473.5Z" fill="#203E92"/>
</svg>
