<svg width="18" height="18" viewBox="0 0 18 18" fill="none" xmlns="http://www.w3.org/2000/svg">
<path d="M8.99997 3.87933C8.73617 3.87933 8.53445 4.08106 8.53445 4.34485V7.52589C7.89824 7.72761 7.44824 8.31726 7.44824 9.00002C7.44824 9.85347 8.14652 10.5517 8.99997 10.5517C9.69824 10.5517 10.2879 10.1017 10.4741 9.46554H13.6551C13.9189 9.46554 14.1207 9.26382 14.1207 9.00002C14.1207 8.73623 13.9189 8.53451 13.6551 8.53451H10.4741C10.3189 8.05347 9.94652 7.66554 9.46548 7.52589V4.34485C9.46548 4.08106 9.26376 3.87933 8.99997 3.87933ZM9.62066 9.00002C9.62066 9.3414 9.34135 9.62071 8.99997 9.62071C8.65859 9.62071 8.37928 9.3414 8.37928 9.00002C8.37928 8.65864 8.65859 8.37933 8.99997 8.37933C9.34135 8.37933 9.62066 8.65864 9.62066 9.00002Z" fill="#615AE1"/>
<path d="M9 0C4.03448 0 0 4.03448 0 9C0 13.9655 4.03448 18 9 18C11.4052 18 13.6707 17.069 15.3466 15.3776L15.3621 15.3621V16.5103C15.3621 16.7741 15.5638 16.9759 15.8276 16.9759C16.0914 16.9759 16.2931 16.7741 16.2931 16.5103V14.2914C16.2931 14.0276 16.0914 13.8259 15.8276 13.8259H13.5931C13.3293 13.8259 13.1276 14.0276 13.1276 14.2914C13.1276 14.5552 13.3293 14.7569 13.5931 14.7569H14.6328C13.1276 16.2466 11.1259 17.069 9 17.069C4.54655 17.069 0.931034 13.4534 0.931034 9C0.931034 4.54655 4.54655 0.931034 9 0.931034C13.4534 0.931034 17.069 4.54655 17.069 9C17.069 9.26379 17.2707 9.46552 17.5345 9.46552C17.7983 9.46552 18 9.26379 18 9C18 4.03448 13.95 0 9 0Z" fill="#615AE1"/>
<path d="M17.1932 11.9017C17.476 11.9017 17.7053 11.6724 17.7053 11.3896C17.7053 11.1068 17.476 10.8776 17.1932 10.8776C16.9104 10.8776 16.6812 11.1068 16.6812 11.3896C16.6812 11.6724 16.9104 11.9017 17.1932 11.9017Z" fill="#615AE1"/>
</svg>
